<?xml version="1.0" standalone="no"?>
<!DOCTYPE svg PUBLIC "-//W3C//DTD SVG 1.1//EN" "http://www.w3.org/Graphics/SVG/1.1/DTD/svg11.dtd" >
<!--
2013-9-30: Created.
-->
<svg>
<metadata>
Created by iconfont
</metadata>
<defs>

<font id="iconfont" horiz-adv-x="1024" >
  <font-face
    font-family="iconfont"
    font-weight="500"
    font-stretch="normal"
    units-per-em="1024"
    ascent="896"
    descent="-128"
  />
    <missing-glyph />
    
    <glyph glyph-name="faj" unicode="&#58923;" d="M652.519 730.204c-134.397 134.395-352.323 134.395-486.721 0-134.397-134.41-134.397-352.332 0-486.727 130.861-130.858 340.852-134.249 475.878-10.316L937.84-63 959-41.84100000000001 662.835 254.33399999999995C786.784 389.343 783.379 599.345 652.519 730.204zM631.358 264.63699999999994c-122.517-122.515-321.884-122.515-444.4 0-122.517 122.514-122.517 321.878 0 444.393 122.517 122.529 321.884 122.529 444.4 0C753.875 586.515 753.875 387.151 631.358 264.63699999999994z"  horiz-adv-x="1024" />

    
    <glyph glyph-name="daohang" unicode="&#58911;" d="M887.212102 631.3556209999999L320.083527 631.3556209999999c-29.826306 0-54.012148 23.896246-54.012148 53.723575s24.185842 53.723575 54.012148 53.723575l567.127552 0c29.827329 0 54.012148-23.896246 54.012148-53.723575S917.039431 631.3556209999999 887.212102 631.3556209999999zM887.212102 333.57351700000004L320.083527 333.57351700000004c-29.826306 0-54.012148 24.408923-54.012148 54.235229 0 29.828352 24.185842 54.235229 54.012148 54.235229l567.127552 0c29.827329 0 54.012148-24.406876 54.012148-54.235229C941.22425 357.98141699999996 917.039431 333.57351700000004 887.212102 333.57351700000004zM887.212102 36.814719999999966L320.083527 36.814719999999966c-29.826306 0-54.012148 24.407899-54.012148 54.235229s24.185842 54.235229 54.012148 54.235229l567.127552 0c29.827329 0 54.012148-24.407899 54.012148-54.235229S917.039431 36.814719999999966 887.212102 36.814719999999966zM153.565003 638.05623l-47.261397 0c-13.05534 0-23.630187 10.601452-23.630187 23.655769l0 47.234791c0 13.080923 10.574846 23.630187 23.630187 23.630187l47.261397 0c13.054317 0 23.630187-10.549264 23.630187-23.630187l0-47.234791C177.19519 648.658705 166.61932 638.05623 153.565003 638.05623L153.565003 638.05623zM153.565003 43.92362800000001l-47.261397 0c-13.05534 0-23.630187 10.600429-23.630187 23.655769l0 47.233768c0 13.080923 10.574846 23.63121 23.630187 23.63121l47.261397 0c13.054317 0 23.630187-10.550287 23.630187-23.63121l0-47.233768C177.19519 54.52405699999997 166.61932 43.92362800000001 153.565003 43.92362800000001L153.565003 43.92362800000001zM153.565003 354.492966l-47.261397 0c-13.05534 0-23.630187 10.601452-23.630187 23.655769l0 47.234791c0 13.080923 10.574846 23.630187 23.630187 23.630187l47.261397 0c13.054317 0 23.630187-10.549264 23.630187-23.630187l0-47.234791C177.19519 365.094418 166.61932 354.492966 153.565003 354.492966L153.565003 354.492966z"  horiz-adv-x="1024" />

    
    <glyph glyph-name="shoucang" unicode="&#58924;" d="M512 833.634604L644.144646 565.8814199999999 939.627381 522.944516 725.81369 314.527742 776.288269 20.23818300000005 512 159.18269799999996 247.710708 20.23818300000005 298.18631 314.527742 84.371596 522.944516 379.855354 565.8814199999999Z"  horiz-adv-x="1024" />

    
    <glyph glyph-name="guanbi" unicode="&#59040;" d="M651.21875001 562.9875L512 423.76875001l-139.21875001 139.21874999c-10.996875 10.996875-28.8 10.996875-39.76874999 0s-10.996875-28.8 0-39.76875001l139.21875001-139.21874999-139.21875001-139.21875001c-10.996875-10.996875-10.996875-28.8 0-39.76874999 10.96875001-10.96875001 28.8-10.996875 39.76875001 0l139.21874999 139.21875001 139.21875001-139.21875001c10.96875001-10.96875001 28.8-10.996875 39.76874999 0 10.996875 10.996875 10.96875001 28.8 0 39.76875001L551.76875001 384l139.21874999 139.21875001c10.996875 10.996875 10.96875001 28.8 0 39.76874999C679.990625 573.984375 662.1875 573.984375 651.21875001 562.9875z"  horiz-adv-x="1024" />

    
    <glyph glyph-name="chexian" unicode="&#59307;" d="M977.13618337 230.5403235l-10.8083828 73.48409443c-4.30820193 57.92538685-41.36445421 109.10717633-94.49232429 132.98174452L824.09006452 615.45067922c-17.4451759 82.70779491-99.87229833 149.93636405-183.79095943 149.93636405H383.72200721c-83.9186611 0-166.34578352-67.25216575-183.79095942-149.93636405L152.16079789 437.00616245c-53.12787009-23.87456819-90.23007281-75.05760044-94.4923243-132.98174452l-10.80589971-73.48409443c-4.63482607-62.37392562 30.55731173-118.55193702 85.75793743-141.30754113 12.71720619-50.07524325 57.50686181-86.61982564 110.58629715-86.61982564 49.3300953 0 91.30308645 31.00067491 107.32626952 75.81392593h322.97979449c15.99958767-44.78965441 57.97009575-75.81392592 107.27783598-75.81392593 53.08191964 0 97.96347494 36.54458239 110.60989254 86.61982564 55.2242223 22.75560289 90.37164999 78.9336155 85.73558238 141.30754113z m-121.65175584-85.10593192c-13.90323545-3.23767137-24.05961394-15.44321009-24.77992497-29.90654896-1.32884921-27.01785437-23.29086817-48.21237153-49.91379411-48.21237153-26.03922591 0-47.39643377 19.89174765-49.72502372 46.30230661-1.44558823 16.67767289-15.34882369 29.48678117-31.97930458 29.48678118H324.9123771c-16.63047968 0-30.51136129-12.80910829-32.00414152-29.48678118-2.28263951-26.4118005-23.66468551-46.30230661-49.70266987-46.30230661-26.64527978 0-48.58494612 21.1485655-49.91131102 48.21237153-0.72279412 14.41738843-10.83073787 26.62292594-24.76129455 29.90654896-36.82277179 8.64000046-60.50981115 41.62153009-57.61987621 80.21402997l10.80589972 73.50644826c2.81914634 37.7082566 30.97707952 71.92424903 68.64062721 83.14991655 12.22789257 3.679793 21.17092057 14.34784139 22.7084109 27.18178782 0.1626907 1.88646832 0.30302754 3.73816373 0.48807207 5.56501977 0.04843474 0.99104753 0.04843474 1.93366153 0.25707589 2.80796881l48.91281181 184.0815679c11.2964561 53.50044467 66.7044814 98.70862412 120.99726723 98.70862411h256.57709787c54.26794769 0 109.70081113-45.20817945 120.99726844-98.70862411l48.88797245-184.0579713c0.1626907-0.94385554 0.1626907-1.93366153 0.2570771-2.85392046 0.11674025-1.78214715 0.2545928-3.60900441 0.48807207-5.42592448 1.51637804-12.82152736 10.45940603-23.5355262 22.73324905-27.27493147 37.5927591-11.24926411 65.79664153-45.46401379 68.61578786-83.14867499l10.78478741-73.48409321c2.90732259-38.59374141-20.77847521-71.62122149-57.58013348-80.26122317z m-104.99519648 190.47494452c-32.93557797 0-59.62680942-26.5980878-59.62680941-59.41568398 0-32.79399958 26.69123143-59.39333014 59.62680941-59.39333014 32.95669149 0 59.64792172 26.59932933 59.64792173 59.39333014 0 32.81759619-26.69123143 59.41568398-59.64792173 59.41568398z m-43.46204797 83.97579029c6.87151392 7.826547 9.59627506 18.57531873 7.80295039 30.19715622-0.14033684 0.76874578-0.27943094 1.5362488-0.44336318 2.30499336l-39.26810198 121.16120067c-4.89066041 26.56455643-31.4887482 48.80724909-58.90401531 48.80724787H408.47957712c-27.39042896 0-53.98975829-22.20791854-58.92512759-48.80724787l-39.22215034-121.11276593c-0.1862873-0.79234116-0.32786569-1.56108694-0.46571823-2.3298315-1.81692128-11.62183748 0.97738691-22.34825538 7.40553765-29.73019645 6.82307918-8.04636566 17.14214836-12.47254938 29.16015704-12.47255058H678.28555108c12.06520187 0 22.38427105 4.42494218 28.741632 11.98199421zM356.77369989 455.77770325l36.38189169 118.8214332h237.75588079l36.3111019-118.8214332H356.77369989z m-83.24306019-119.86836715c-32.93309489 0-59.67276108-26.5980878-59.67275986-59.41568398 0-32.79399958 26.73966619-59.39333014 59.67275986-59.39333014 32.93557797 0 59.62680942 26.59932933 59.62680942 59.39333014 0 32.81759619-26.69123143 59.41568398-59.62680942 59.41568398z"  horiz-adv-x="1024" />

    
    <glyph glyph-name="yousanjiao" unicode="&#58880;" d="M394.752 587.264c-4.608 3.584-9.728 5.632-15.872 5.632-13.824 0-25.6-10.752-25.6-24.064v-412.672c0-13.312 11.264-24.064 25.6-24.064 6.656 0 12.8 2.56 17.408 6.144L650.24 343.552c6.144 4.608 10.24 11.264 10.24 18.944s-3.584 14.336-9.728 18.944l-256 205.824c0-0.512 0 0 0 0z"  horiz-adv-x="1024" />

    
    <glyph glyph-name="zhaoxiangji" unicode="&#59017;" d="M512.46875 506.12625c-116.2471875 0-210.4790625-94.2721875-210.4790625-210.519375 0-116.2753125 94.2309375-210.555 210.4790625-210.555 116.240625 0 210.4790625 94.2796875 210.4790625 210.555 0 116.2471875-94.2384375 210.519375-210.4790625 210.519375z m-1.0996875-361.085625c-82.606875 0-149.5678125 66.99375-149.5678125 149.6296875 0 82.6059375 66.961875 149.5996875 149.5678125 149.5996875 82.599375 0 149.56875-66.99375 149.56875-149.5996875 0-82.636875-66.969375-149.6296875-149.56875-149.6296875z m364.524375 478.4015625H736.4196875L684.66875 729.080625c-5.0915625 9.6009375-14.1759375 15.1359375-23.649375 15.54a27.2671875 27.2671875 0 0 1-2.9559375 0.1603125H372.498125c-5.73 0-11.0625-1.7915625-15.534375-4.8646875-4.4690625-2.6484375-8.3465625-6.62625-11.075625-11.773125l-52.15875-104.7009375H213.4625V653.578125c0 16.981875-13.7596875 30.765-30.7415625 30.765-16.9753125 0-30.7415625-13.783125-30.7415625-30.765v-30.1359375h-3.8775C85.0146875 623.4421875 33.875 572.2790625 33.875 509.16375v-429.9609375c0-63.1096875 51.1396875-114.2728125 114.226875-114.2728125h727.7915625c63.0928125 0 114.2315625 49.288125 114.2315625 112.3978125V509.1628125c0 63.11625-51.13875 114.279375-114.2315625 114.279375z m57.1190625-544.2403125c0-31.5665625-25.569375-57.1453125-57.1190625-57.1453125H148.101875c-31.543125 0-57.1190625 25.57875-57.1190625 57.1453125V507.2878125c0 31.6003125 25.575 57.1509375 57.1190625 57.1509375h166.8515625v0.1425c8.9203125 0.9046875 17.319375 6.346875 22.13625 15.4321875l51.9646875 104.32875h252.80625l51.0965625-104.32875c4.9134375-9.260625 13.54125-14.743125 22.6509375-15.485625v-0.0890625h160.284375c31.54875 0 57.1190625-25.550625 57.1190625-57.1509375v-428.0859375zM781.8321875 503.7825c-16.550625 0-29.9615625-13.4034375-29.9615625-29.9540625 0-16.545 13.4109375-29.9784375 29.9615625-29.9784375 16.5440625 0 29.960625 13.4334375 29.960625 29.9784375 0.0009375 16.550625-13.415625 29.9540625-29.960625 29.9540625z"  horiz-adv-x="1024" />

    
    <glyph glyph-name="ju" unicode="&#58881;" d="M436.90666667 315.73333333000005l30.72-30.72 0 34.13333334C453.97333333 319.14666666999995 447.14666667 315.73333333000005 436.90666667 315.73333333000005zM303.78666667 476.16c44.37333333 3.41333333 85.33333333 6.82666667 126.29333333 6.82666667l0 20.48-126.29333333 0L303.78666667 476.16zM641.70666667 612.69333333c0 0 54.61333333-20.48 119.46666666-54.61333333 17.06666667 13.65333333 30.72 20.48 40.96 34.13333333s13.65333333 23.89333333 6.82666667 34.13333334c-6.82666667 13.65333333-23.89333333 17.06666667-51.2 20.48l-3.41333333 0c-102.4 0-163.84-44.37333333-167.25333334-44.37333334l-20.48 44.37333334-44.37333333 0 0-157.01333334 54.61333333 0 0-54.61333333c-17.06666667 0-37.54666667 0-54.61333333-3.41333333l0-37.54666667c40.96 6.82666667 78.50666667 13.65333333 112.64 17.06666667l-44.37333333 68.26666666c34.13333333 13.65333333 68.26666667 27.30666667 102.4 40.96-47.78666667 34.13333333-88.74666667 44.37333333-88.74666667 44.37333334L641.70666667 612.69333333zM805.54666667 875.52l-580.26666667 0c-109.22666667 0-197.97333333-88.74666667-197.97333333-197.97333333l0-576.85333334c0-112.64 88.74666667-201.38666667 197.97333333-201.38666666l576.85333333 0c109.22666667 0 197.97333333 88.74666667 197.97333334 197.97333333l0 580.26666667C1003.52 786.77333333 914.77333333 875.52 805.54666667 875.52zM177.49333333 66.55999999999995c-6.82666667 17.06666667-27.30666667 44.37333333-27.30666666 44.37333333 180.90666667 30.72 259.41333333 122.88 259.41333333 122.88l54.61333333-58.02666666C399.36 114.34666666999999 225.28 66.55999999999995 177.49333333 66.55999999999995zM737.28 438.61333333c0 0 23.89333333-58.02666667 47.78666667-85.33333333-44.37333333-10.24-116.05333333-17.06666667-191.14666667-23.89333333 20.48-27.30666667 44.37333333-51.2 78.50666667-78.50666667 81.92 30.72 129.70666667 98.98666667 129.70666666 98.98666667l98.98666667-58.02666667c0 0-75.09333333-68.26666667-157.01333333-85.33333333 44.37333333-23.89333333 102.4-44.37333333 160.42666666-58.02666667 0 0-68.26666667-64.85333333-85.33333333-85.33333333-122.88 47.78666667-191.14666667 109.22666667-232.10666667 157.01333333l0-157.01333333-119.46666666 0 0 225.28c-68.26666667-61.44-242.34666667-112.64-290.13333334-112.64-6.82666667 17.06666667-27.30666667 44.37333333-27.30666666 44.37333333 112.64 17.06666667 187.73333333 61.44 225.28 92.16-88.74666667-6.82666667-153.6-10.24-153.6-10.24l-13.65333334 58.02666667c51.2 0 133.12 6.82666667 221.86666667 13.65333333L430.08 418.13333333c-167.25333333-13.65333333-256-44.37333333-256-44.37333333l-34.13333333 85.33333333c23.89333333 3.41333333 47.78666667 6.82666667 75.09333333 10.24l0 174.08-51.2 0 0 61.44 416.42666667 0 0-30.72c40.96 10.24 112.64 27.30666667 191.14666666 23.89333334 61.44 0 102.4-17.06666667 122.88-51.2 13.65333333-20.48 13.65333333-44.37333333-3.41333333-75.09333334-13.65333333-13.65333333-27.30666667-34.13333333-51.2-51.2 27.30666667-17.06666667 54.61333333-40.96 78.50666667-61.44-40.96-34.13333333-88.74666667-71.68-88.74666667-71.68-20.48 30.72-44.37333333 58.02666667-68.26666667 78.50666667-20.48-13.65333333-44.37333333-27.30666667-75.09333333-44.37333333C703.14666667 424.96 720.21333333 431.78666667 737.28 438.61333333zM303.78666667 571.73333333l126.29333333 0 0-30.72-126.29333333 0 0 30.72ZM303.78666667 640l126.29333333 0 0-27.30666667-126.29333333 0 0 27.30666667Z"  horiz-adv-x="1024" />

    
    <glyph glyph-name="youxi" unicode="&#58891;" d="M742.4 603.2000003200001H543.99999969V808c0 19.2-12.79999969 31.99999969-31.99999969 31.99999969s-31.99999969-12.79999969-31.99999969-31.99999969v-204.79999968H345.60000031C172.80000031 603.2000003200001 32 462.4 32 289.6s140.80000031-313.60000031 313.60000031-313.60000031h396.79999969c172.8 0 313.60000031 140.80000031 313.60000031 313.60000031s-140.80000031 313.60000031-313.60000031 313.60000032z m0-563.20000032H345.60000031C211.20000031 40 96.00000031 148.79999969000005 96.00000031 289.6s115.2 249.6 249.6 249.6h396.79999969c140.80000031 0 249.6-115.2 249.6-249.6 0-140.80000031-115.2-249.6-249.6-249.6zM512 328H416V424c0 19.2-12.79999969 31.99999969-31.99999969 31.99999969s-31.99999969-12.79999969-32.00000062-31.99999969V328H255.99999969c-19.2 0-31.99999969-12.79999969-31.99999969-31.99999968s12.79999969-31.99999969 31.99999969-32.00000063H351.99999969v-96c0-19.2 12.79999969-31.99999969 32.00000062-31.99999969s31.99999969 12.79999969 31.99999969 31.99999969V263.99999969h96c19.2 0 31.99999969 12.79999969 31.99999969 32.00000063S531.2 328 512 328zM620.79999969 289.6a38.4 38.4 0 1 1 76.8 0 38.4 38.4 0 1 1-76.8 0ZM812.79999969 289.6m-38.4 0a38.4 38.4 0 1 1 76.8 0 38.4 38.4 0 1 1-76.8 0Z"  horiz-adv-x="1092" />

    
    <glyph glyph-name="xiajiantou" unicode="&#58885;" d="M512.07440346 320.79565980999996l-163.44146388 163.43866676c-6.8641387 6.86973294-18.00563717 6.86973294-24.87033531 0-6.87029237-6.8641387-6.87029237-18.00563717 0-24.8703353l175.87635183-175.87635181c6.8641387-6.86973294 18.00563717-6.86973294 24.8703353 0l175.87579238 175.87635181c3.43486648 3.43262877 5.15285913 7.93431777 5.15285915 12.43488795s-1.71799266 9.00225917-5.15285915 12.43488792c-6.8641387 6.86973294-18.00563717 6.86973294-24.87033528 0l-163.44090448-163.43866676z"  horiz-adv-x="1024" />

    
    <glyph glyph-name="taobao" unicode="&#59364;" d="M941.6-96H82.4c-26.4 0-48 21.6-48 48V811.2c0 26.4 21.6 48 48 48h859.2c26.4 0 48-21.6 48-48V-48c0-26.4-21.6-48-48-48zM221.6 712.8c45.6 0 81.6-36 81.6-81.6s-36-81.6-81.6-81.6C176 552 142.4 588 142.4 633.6c0 43.2 33.6 79.2 79.2 79.2z m189.6-331.2l-57.6 31.2 110.4 151.2c-50.4-21.6-88.8-55.2-115.2-96-2.4-12-7.2-21.6-12-31.2-28.8 21.6-57.6 43.2-84 67.2 45.6 74.4 91.2 146.4 134.4 223.2 38.4-14.4 76.8-26.4 112.8-40.8-9.6-21.6-16.8-43.2-26.4-67.2 180 88.8 460.8 98.4 475.2-100.8 9.6-124.8 4.8-232.8-9.6-338.4-14.4-120-72-136.8-144-139.2h-160.8c-2.4 19.2-4.8 36-4.8 52.8h100.8c69.6 4.8 100.8 33.6 100.8 117.6l4.8 172.8c2.4 93.6 7.2 194.4-84 213.6-67.2 14.4-134.4-4.8-204-7.2-12-4.8-26.4-7.2-38.4-9.6l52.8-45.6-43.2-43.2h266.4v-57.6H632v-67.2h156v-48H632v-112.8c24 4.8 50.4 12 74.4 16.8-7.2 14.4-16.8 28.8-26.4 43.2 21.6 9.6 40.8 19.2 62.4 28.8 48-33.6 67.2-76.8 57.6-132-19.2-16.8-38.4-36-57.6-52.8-9.6 19.2-21.6 38.4-31.2 57.6-292.8-112.8-412.8-76.8-362.4 112.8h103.2c0-79.2 14.4-91.2 52.8-93.6h4.8v132h-158.4v48h158.4v67.2h-31.2v9.6l-67.2-62.4zM159.2 530.4l-57.6-72c98.4-55.2 180-120 103.2-206.4-40.8-45.6-93.6-79.2-139.2-117.6 43.2-33.6 86.4-67.2 127.2-100.8 26.4 60 45.6 117.6 84 196.8 55.2 115.2 38.4 201.6-117.6 300z"  horiz-adv-x="1024" />

    
    <glyph glyph-name="chonghuafei" unicode="&#58986;" d="M711.488 864H310.976c-59.808 0-107.52-51.168-107.52-115.2v-729.6c0-64.032 47.712-115.2 107.52-115.2h402.048c59.808 0 107.52 51.168 107.52 115.2V748.8C819.104 812.736 771.296 864 711.488 864z m61.344-844.8c0-36.768-28.512-65.664-61.344-65.664H310.976c-34.368 0-61.344 30.432-61.344 65.664V748.8h-1.536c0 36.768 28.512 65.664 61.344 65.664h402.048c34.368 0 61.344-30.528 61.344-65.664v-729.6z m-52.416 111.84H309.44c-11.904 0-20.928-9.696-20.928-22.464 0-12.768 9.024-22.368 20.928-22.368h410.88c12.096 0 20.928 9.696 20.928 22.368 0.096 12.864-8.928 22.464-20.832 22.464zM318.368 694.2719999999999H704c12 0 20.928 11.328 20.928 22.368 0 12.768-9.024 22.464-20.928 22.464H318.368c-11.904 0-20.928-9.696-20.928-22.464 0-12.672 9.024-22.368 20.928-22.368z m315.456-270.24c11.904 0 20.928 9.696 20.928 22.368-1.536 9.504-10.56 19.2-20.928 19.2h-73.248l79.2 84.864c7.488 8.064 7.488 22.464 0 30.528-7.488 8.064-20.928 8.064-28.512 0l-100.128-105.6-100.128 107.136c-7.488 8.064-20.928 8.064-28.512 0-7.488-8.064-7.488-22.464 0-30.528l79.2-84.864h-73.248c-11.904 0-20.928-9.696-20.928-22.464 0-12.768 9.024-22.368 20.928-22.368h101.664v-43.2H388.544c-11.904 0-20.928-9.696-20.928-22.368 0-12.768 9.024-22.464 20.928-22.464h101.664v-65.664c0-12.768 9.024-22.464 20.928-22.464s20.928 9.696 20.928 22.464v67.2h101.664c11.904 0 20.928 9.696 20.928 22.464 0 12.768-9.024 22.464-20.928 22.464H532.064v43.2h101.76z"  horiz-adv-x="1024" />

    
    <glyph glyph-name="gouwuche" unicode="&#59107;" d="M989.25181967 581.496361H325.96215467l-4.471616 13.414847c0 1.490539 1.490539 2.981077 1.490538 4.471616v2.981077c0 8.943231-4.471616 14.905386-10.43377 20.86754-5.962154 5.962154-13.414847 8.943231-22.358078 8.943231H53.19359567c-17.886463 0-32.791849-13.414847-32.791849-29.810771s14.905386-29.810771 32.791849-29.810771h235.505094l101.356623-323.446871c2.981077-8.943231 8.943231-13.414847 17.886463-13.414847h14.905386L397.50800567 120.91994199999999c-38.754003-1.490539-70.055313-32.791849-70.055313-73.03639s32.791849-73.03639 73.03639-73.03639c35.772926 0 65.583697 26.829694 71.545852 61.112081h234.014556c5.962154-34.282387 35.772926-61.112082 71.545851-61.112081 40.244541 0 73.03639 32.791849 73.036391 73.03639S817.83988367 120.91994199999999 777.59534167 120.91994199999999c-34.282387 0-62.60262-23.848617-70.055313-55.149927H470.54439567c-5.962154 23.848617-23.848617 43.225619-47.697234 50.678311l25.339156 119.243086h478.462882c10.43377 0 17.886463 8.943231 17.886463 20.86754 0 11.924309-8.943231 20.86754-17.886463 20.86754h-41.73508l13.414847 41.73508h5.962154c7.452693 0 11.924309 5.962154 11.924309 14.905386 0 5.962154-2.981077 11.924309-8.943232 13.414847l28.320233 87.941776h11.924309c7.452693 0 11.924309 5.962154 11.924308 14.905386 0 7.452693-5.962154 14.905386-11.924308 14.905385h-2.981077l28.320233 86.451238h16.395924c7.452693 0 11.924309 5.962154 11.924308 14.905385 1.490539 8.943231-4.471616 14.905386-11.924308 14.905386z"  horiz-adv-x="1024" />

    
    <glyph glyph-name="tianmao" unicode="&#58899;" d="M861.86015 864H162.12515C90.45515 864 32.00015 806.595 32.00015 734.115v-698.355a129.675 129.675 0 0 1 130.14-129.9h699.735c71.655 0 130.14 57.42 130.14 129.9V734.115C992.00015 806.595 933.53015 864 861.86015 864z m0 0M902.40515-88.48500000000001a136.5 136.5 0 0 0-37.74-5.655c11.355 0 23.595 1.905 37.74 5.655z m0 0M32.00015 734.115v-636.255V734.115z m89.58-822.6c14.16-3.75 26.4-5.655 39.615-5.655-13.215 0-25.455 1.905-39.615 5.655z m0 0M909.93515-46.125c0 55.515-44.295 103.53-99.96 105.405-1.875 1.875-3.75 1.875-5.655 1.875-1.875 0-3.78 0-5.655-1.875h12.24c16.05-7.53 28.305-51.765 28.305-105.405 0-17.895-1.875-33.87-3.75-48.015h28.275c14.145 0 26.4 1.905 37.74 5.655 6.585 14.115 8.46 28.245 8.46 42.36z m0 0M226.26515 59.29499999999996c-1.89 1.875-3.78 1.875-5.67 1.875s-3.765 0-5.64-1.875h11.31z m0 0M213.99515 59.29499999999996c-55.65-1.875-99.96-49.89-99.96-105.405 0-14.115 3.765-28.245 10.365-42.36 12.255-3.75 23.565-5.655 37.725-5.655h28.29c-1.89 14.145-3.765 30.12-3.765 48.015-0.93 53.625 11.31 97.875 27.345 105.405z m583.74 0c-55.635-1.875-99.96-49.89-99.96-105.405 0-17.895 3.78-33.87 12.24-48.015h64.125c-1.875 14.145-3.78 30.12-3.78 48.015 0.015 53.625 11.34 97.875 27.375 105.405zM531.80015-24.465000000000032h-39.615c-12.255 0-16.02-5.655-10.365-14.115l12.255-15.99c3.765-5.655 10.38-14.115 12.27-17.88 1.875-1.89 1.875-1.89 5.655-1.89s5.655 1.89 5.655 1.89c3.78 3.765 7.545 12.225 12.255 17.88l10.365 15.99c7.545 8.46 3.78 14.115-8.475 14.115z m-305.535 83.76c16.02-7.53 30.18-51.765 30.18-105.405 0-17.895-1.89-33.87-3.78-48.015h64.125a100.83 100.83 0 0 1 12.24 48.015c-2.805 55.5-47.13 103.53-102.765 105.405z m676.14-147.78c17.895 5.655 35.835 16.005 49.98 28.245-16.02-12.24-32.07-21.66-49.98-28.245z m0 0M76.32515-60.24000000000001C49.91015-35.75999999999999 32.00015-1.8899999999999864 32.00015 35.75999999999999V99.75v-63.99c0-37.65 16.02-71.52 44.325-96z m45.255-28.245c-17.91 5.655-33.945 14.115-48.09 28.245 14.13-12.24 33-21.66 48.09-28.245z m0 0M949.55015 223.04999999999995c-37.71 21.66-76.38-17.865-82.035-26.34-49.98-57.405-105.615-127.08-205.575-127.08H362.04515c-99.96 0-153.72 71.55-205.575 128.01-7.56 7.53-44.325 48.015-82.05 26.37C40.47515 203.29499999999996 33.87515 141.17999999999995 32.00015 99.75v-65.865c0-37.65 16.02-71.55 44.325-96a154.245 154.245 0 0 1 48.09-28.245c-5.67 12.24-10.365 26.34-10.365 42.36 0 55.515 44.31 103.515 99.96 105.405 1.89 1.875 3.765 1.875 5.655 1.875s3.78 0 5.655-1.875c55.62-1.89 99.975-49.89 99.975-105.405 0-17.895-3.78-33.9-12.255-48h396.045a100.965 100.965 0 0 0-12.225 48c0 55.515 44.325 103.515 99.96 105.405 1.875 1.875 3.75 1.875 5.655 1.875 1.875 0 3.78 0 5.655-1.875 55.635-1.89 99.96-49.89 99.96-105.405 0-14.115-3.78-28.245-10.365-42.36 17.925 5.655 35.835 15.99 49.98 28.245a126 126 0 0 1 42.42 94.125v65.865c-0.03 43.305-6.615 105.42-40.575 125.175zM542.18015-38.59500000000003l-10.365-14.115c-5.655-5.655-10.38-14.115-12.27-17.865-1.89-1.89-3.765-3.78-7.545-3.78s-5.655 1.89-5.655 1.89c-3.78 3.765-7.545 12.225-12.27 17.88l-12.255 15.99c-5.655 7.53 0 14.115 10.365 14.115h39.615c12.255 0.015 16.02-5.64 10.38-14.115z m0 0M809.97515 59.29499999999996h-12.24c-16.02-7.53-28.305-51.765-28.305-105.405 0-17.895 1.905-33.87 3.78-48.015h62.25c1.875 14.145 3.75 30.12 3.75 48.015-0.93 53.625-13.17 97.875-29.235 105.405z m-583.71 0h-12.255c-16.035-7.53-30.18-51.765-30.18-105.405 0-17.895 1.89-33.87 3.765-48.015h62.235c1.89 14.145 3.78 30.12 3.78 48.015 0 53.625-11.325 97.875-27.345 105.405z m0 0M351.68015 532.71h137.685v35.76H347.90015V644.7h128.265v37.665H183.83015v-35.76h128.25v-76.245H169.67015v-35.76h137.685c-14.13-53.64-57.525-99.765-137.685-145.89l17.91-32.01c49.98 28.245 112.215 69.66 144.285 133.665 7.545-16.005 17.91-31.995 32.07-48.015 26.4-30.12 62.235-57.405 112.215-85.65l17.91 32.01c-83.925 44.235-128.235 90.345-142.38 144z m318.735 62.13h35.865v30.12h78.255v-30.12h35.835v30.12h35.865v35.76h-35.865v21.645h-35.835v-23.52h-78.255v23.52h-35.865v-23.52h-33.93v-35.775h33.93v-28.23z m-72.6 69.63c-19.8 19.77-51.87 19.77-69.78 17.895h-3.765v-35.76h5.64c12.27 0 33.96 0 44.325-7.53 1.905-1.89 5.655-5.655 5.655-17.88v-12.225l-55.62-33.885 17.925-31.995 37.71 21.645v-39.525l-55.62-33.885 17.925-31.995 37.71 21.645v-30.12c0-7.515-3.75-21.645-10.365-28.23-17.91-21.645-46.2-37.65-46.2-37.65l17.925-32.01c1.875 0 35.835 19.77 55.635 46.14 10.365 14.085 17.925 33.87 17.925 51.75V618.36c-1.005 19.755-6.66 33.87-17.025 46.11z m37.725-94.125v-163.755c0-30.12 23.55-53.655 53.73-53.655H801.50015c30.18 0 53.76 23.535 53.76 53.655V570.345H635.54015z m92.4-179.76H690.20015c-10.365 0-17.895 7.53-17.895 17.88v35.76h55.635v-53.64z m0 90.36h-55.635v53.64h55.635v-53.64z m92.415-74.355c0-10.35-7.53-17.88-17.895-17.88h-37.74v55.53h55.635v-37.65z m0 74.355h-55.635v53.64h55.635v-53.64z m0 0"  horiz-adv-x="1024" />

    
    <glyph glyph-name="taopiaopiao" unicode="&#58904;" d="M272 864h480c132.5625 0 240-107.4375 240-240v-480c0-132.5625-107.4375-240-240-240H272C139.4375-96 32 11.4375 32 144V624C32 756.5625 139.4375 864 272 864zM601.0625 662.15625c-55.40625 14.71875-72.5625 87.9375-176.25 87.9375 37.59375-43.125 20.25-81-7.96875-89.71875-137.53125-36.75-240.5625-152.53125-234.09375-312.65625 6.75-164.8125 147.5625-272.25 329.53125-272.25s322.78125 107.53125 329.53125 272.25c6.65625 162.75-99.9375 279.65625-240.75 314.4375M794.5625 449.625c-0.09375-0.75-0.84375-4.96875-4.96875-6-0.1875 0-0.375-0.1875-0.5625-0.28125-5.34375-2.34375-13.40625-9.09375-16.3125-28.03125-1.03125-8.53125-2.8125-17.53125-4.6875-27.09375v-0.09375c-5.34375-27.28125-13.78125-50.0625-25.21875-67.40625-16.03125-24.375-37.78125-37.96875-62.90625-39.28125-18.375-0.9375-33.84375-1.03125-47.25-0.1875-38.8125 2.4375-61.03125 12.46875-76.78125 34.6875-21.1875 29.90625-30.84375 84.1875-43.40625 84.1875-12.5625 0-22.3125-54.375-43.5-84.28125-15.75-22.21875-37.96875-32.25-76.78125-34.6875-13.40625-0.84375-28.875-0.75-47.25 0.1875-25.21875 1.3125-46.96875 14.90625-62.90625 39.28125-11.4375 17.4375-19.96875 40.125-25.21875 67.40625v0.09375c-1.875 9.5625-3.5625 18.5625-4.6875 27.09375-2.90625 18.9375-10.96875 25.6875-16.3125 28.03125l-0.5625 0.28125c-4.125 1.03125-4.875 5.25-4.96875 6-0.46875 7.6875-2.34375 24.75-3.09375 35.4375-0.46875 7.96875 6.09375 9 7.3125 9.09375 45.84375 2.90625 152.0625 8.625 200.34375-4.03125 14.4375-3.75 55.6875-11.625 77.4375-11.625 21.75 0 63.09375 7.875 77.4375 11.625 48.28125 12.65625 154.59375 6.9375 200.34375 4.03125 1.21875-0.09375 7.78125-1.125 7.3125-9.09375-0.46875-10.59375-2.34375-27.75-2.8125-35.34375M424.4375 454.3125c-1.03125 0.1875-2.15625 0.46875-3.46875 0.65625-17.15625 3.1875-52.3125 7.6875-79.40625 5.90625-11.90625-0.75-22.3125-2.71875-29.0625-6.46875-16.5-9.375-17.90625-24-15.09375-43.78125 0.84375-5.71875 1.96875-11.90625 3.1875-18.46875 6.5625-35.25 22.21875-72.65625 54.65625-74.53125 14.53125-0.84375 26.53125-0.9375 36.46875-0.28125 30.46875 1.875 41.4375 10.21875 49.03125 21.46875 43.5 64.40625 26.4375 106.6875-16.3125 115.5M710.28125 454.40625c-6.65625 3.75-17.0625 5.71875-29.0625 6.46875-27.09375 1.6875-62.15625-2.71875-79.40625-5.90625-1.21875-0.28125-2.4375-0.46875-3.46875-0.65625-42.5625-8.8125-59.71875-51.09375-16.40625-115.5 7.59375-11.25 18.5625-19.59375 49.03125-21.46875 9.9375-0.65625 21.84375-0.5625 36.46875 0.28125 32.53125 1.875 48.09375 39.375 54.65625 74.53125 1.21875 6.5625 2.34375 12.75 3.1875 18.46875 2.8125 19.78125 1.5 34.5-15 43.78125"  horiz-adv-x="1024" />

    
    <glyph glyph-name="huiyuanjulebu" unicode="&#59315;" d="M512 850.48888889c-257.59288889 0-466.48888889-208.896-466.48888889-466.48888889s208.896-466.48888889 466.48888889-466.48888889 466.48888889 208.896 466.48888889 466.48888889-208.896 466.48888889-466.48888889 466.48888889z m-83.28533333-772.89244444H297.30133333V557.62488889H253.72444445V605.86666667h176.81066666l-0.91022222-250.31111112 213.56088889 250.53866667 224.48355555-0.22755555-438.95466666-528.27022222z"  horiz-adv-x="1024" />

    
    <glyph glyph-name="youjianyou" unicode="&#58882;" d="M439.456 140.79999999999995l-59.744 59.744L563.168 384l-183.456 183.456L439.456 627.2l243.2-243.2z"  horiz-adv-x="1024" />

    
    <glyph glyph-name="zhifubao" unicode="&#58883;" d="M967.14752 215.97297813L967.14752 664.09358187c0 96.59278187-78.42474667 175.01752853-175.09034667 175.01752853L231.87000853 839.11111147c-96.59278187 0-175.01752853-78.38833812-175.01752853-175.01752854l0-560.22357333c0-96.59278187 78.35192853-175.01752853 175.01752854-175.01752853l560.22357333 0c86.10702187 0 157.72330667 62.2592 172.32327146 144.10638186-46.42133333 20.09770667-247.5804448 106.9693152-352.4016352 156.99512854-79.7718752-96.62919147-163.29386667-154.59214187-289.1958048-154.59214187s-209.93365332 77.55093333-199.84839146 172.43249813c6.66282667 62.29560853 49.37045333 164.16768 234.98296853 146.69141334 97.7942752-9.17504 142.57720853-27.45230187 222.3126752-53.77592854 20.64384 37.79242667 37.79242667 79.4806048 50.7904 123.75381334L277.38112 464.4636448l0 35.06176 174.98112 0 0 62.91456L238.93333333 562.4399648l1e-8 38.59342187 213.46531519 0L452.39864853 691.90997333c0 0 1.92967147 14.19946667 17.62190187 14.19946668l87.52696853-1e-8 0-105.0396448 227.5555552 0 0-38.59342187-227.5555552-1e-8 0-62.91455999 185.6489248 0c-17.07576854-69.46816-42.96248853-133.29294187-75.40280853-189.03495146C721.7152 291.01169813 967.14752 215.97297813 967.14752 215.97297813L967.14752 215.97297813 967.14752 215.97297813 967.14752 215.97297813zM308.87480852 135.4729248c-133.03808 0-154.08241813 83.99530667-147.01909332 119.09347519 6.99050667 34.9161248 45.51111147 80.53646187 119.49397333 80.53646188 84.97834667 0 161.10933333-21.8089248 252.4956448-66.22776854C469.65646187 185.24387520000005 390.79480853 135.4729248 308.87480852 135.4729248L308.87480852 135.4729248 308.87480852 135.4729248zM308.87480852 135.4729248"  horiz-adv-x="1024" />

    
    <glyph glyph-name="aliwangwang" unicode="&#60120;" d="M804.69333333 327.67999999999995c-33.28 0-53.76-2.56-89.6-2.56 40.96 76.8 15.36 153.6-28.16 179.2 28.16 12.8 58.88 23.04 89.6 30.72 56.32-48.64 51.2-163.84 28.16-207.36z m-253.44-28.16c-33.28 0-61.44-2.56-89.6-2.56 28.16 71.68 10.24 156.16-28.16 179.2 35.84 12.8 51.2 20.48 89.6 30.72 53.76-46.08 51.2-166.4 28.16-207.36zM295.25333333 896s40.96-69.12 48.64-145.92C157.01333333 691.2 21.33333333 524.8 21.33333333 327.67999999999995c0-248.32 215.04-448 481.28-448s481.28 199.68 481.28 448c0 230.4-189.44 422.4-432.64 445.44-87.04 69.12-256 122.88-256 122.88z"  horiz-adv-x="1024" />

    
    <glyph glyph-name="tudouwang" unicode="&#60199;" d="M517.12 857.6C256 857.6 46.08 647.6800000000001 46.08 389.12 46.08 128 256-81.91999999999996 517.12-81.91999999999996S985.6 128 985.6 389.12c0 258.56-209.92 468.48-468.48 468.48z m0-847.36C307.2 10.240000000000009 138.24 179.20000000000005 138.24 389.12 138.24 596.48 307.2 768 517.12 768S896 596.48 896 389.12c0-209.92-171.52-378.88-378.88-378.88z m289.28 419.84c-33.28 15.36-74.24 23.04-117.76 23.04s-84.48-7.68-117.76-23.04c2.56 64 53.76 115.2 117.76 115.2 64 0 115.2-51.2 117.76-115.2z m-345.6 0c-33.28 15.36-74.24 23.04-117.76 23.04-43.52 0-84.48-7.68-117.76-23.04 2.56 64 53.76 115.2 117.76 115.2 61.44 0 115.2-51.2 117.76-115.2z m-97.28-89.6c0 17.92-15.36 33.28-33.28 33.28-15.36 0-28.16-10.24-30.72-23.04-5.12 17.92-25.6 25.6-43.52 20.48-12.8-5.12-23.04-17.92-23.04-30.72 0-15.36 10.24-28.16 23.04-30.72-17.92-5.12-28.16-25.6-20.48-43.52 5.12-12.8 17.92-23.04 30.72-23.04 15.36 0 28.16 10.24 30.72 23.04 5.12-17.92 25.6-25.6 43.52-20.48 12.8 5.12 23.04 17.92 23.04 30.72 0 15.36-10.24 28.16-23.04 30.72 12.8 5.12 23.04 17.92 23.04 33.28z m-66.56-53.76c-2.56 10.24-10.24 17.92-20.48 20.48 10.24 2.56 17.92 10.24 20.48 20.48 2.56-10.24 10.24-17.92 20.48-20.48-7.68-2.56-15.36-10.24-20.48-20.48z"  horiz-adv-x="1024" />

    
    <glyph glyph-name="zhifu" unicode="&#58903;" d="M958.506558 739.619827c-83.960968 0-139.93394 55.973979-139.93394 139.93394L510.71775 851.565771 202.860867 879.553767c0-83.959961-55.971965-139.93394-139.932933-139.93394-55.973979-643.697734 447.789816-867.590628 447.789816-867.590628S1014.480537 95.92209300000002 958.506558 739.619827zM603.766736 460.149662l111.348869 0 0-99.657082L568.175856 360.49258l0-43.425344 146.940756 0 0-100.429352L568.175856 216.63788399999999l0-120.715791L453.091495 95.92209300000002 453.091495 216.63687700000003l-152.339599 0 0 100.429352 152.339599 0 0 43.425344-152.339599 0 0 99.657082 115.373333 0L257.614518 732.432782l131.277869 0c0 0 100.673015-185.858338 123.597456-231.78777 7.314919 14.774827 124.463365 231.78777 124.463365 231.78777l126.866767 0L603.766736 460.149662z"  horiz-adv-x="1024" />

    
    <glyph glyph-name="tianmao1" unicode="&#58952;" d="M901.41156406-86.81454561999999a134.09454562 134.09454562 0 0 0-37.78909125-5.58545438 145.50545437 145.50545437 0 0 1 37.78909125 5.58545437zM121.38974562-86.00727281000002zM908.80792719-44.66181844000005a105.12 105.12 0 0 1-99.97090875 105.07636406 6.61090875 6.61090875 0 0 1-5.60727281 2.00727282 6.39272719 6.39272719 0 0 1-5.58545438-2.00727282h12.19636313c15.99272719-7.39636406 28.18909125-51.53454562 28.18909125-105.07636406a332.68363594 332.68363594 0 0 0-3.79636407-47.73818156h28.38545438a117.07636406 117.07636406 0 0 1 37.59272812 5.58545437 96.39272719 96.39272719 0 0 1 8.4 42.15272719h0.21818157zM225.96429125 60.21818155999995a8.26909125 8.26909125 0 0 1-11.19272719 0h11.19272719zM213.74610875 60.41454562000001a105.12 105.12 0 0 1-99.97090875-105.07636406c0.34909125-14.64 3.88363594-29.01818156 10.40727281-42.15272719a120.08727281 120.08727281 0 0 1 37.59272719-5.58545437h28.38545437a366.61090875 366.61090875 0 0 0-3.6 47.73818156c-0.98181844 53.54181844 11.21454562 97.68 27.20727282 105.07636406z m583.09090969 0a105.12 105.12 0 0 1-99.97090969-105.07636406 90.82909125 90.82909125 0 0 1 12.19636406-47.73818156h63.97090875a364.21090875 364.21090875 0 0 0-3.79636312 47.73818156c0 53.54181844 11.41090875 97.68 27.40363593 105.07636406h0.19636407z m-264.9381825-83.49818156h-39.99272719c-12.39272719 0-15.99272719-5.60727281-10.40727281-13.98545531l12.2181825-15.99272719c3.77454563-5.58545437 10.38545438-13.96363594 12.17454562-17.76 1.81090875-3.79636406 2.00727281-1.81090875 5.80363594-1.81090875a8.20363594 8.20363594 0 0 1 5.60727281 1.81090875c3.79636406 3.79636406 7.59272719 12.17454563 12.19636313 17.76l10.38545531 15.99272719c7.61454563 8.37818156 3.79636406 13.96363594-8.4 13.96363687h0.41454469zM225.96429125 60.41454562000001c15.99272719-7.39636406 30.19636406-51.53454562 30.19636313-105.07636406a332.68363594 332.68363594 0 0 0-4.21090876-47.73818156h64.18909032a99.79636406 99.79636406 0 0 1 12.2181825 47.73818156A109.92 109.92 0 0 1 225.96429125 60.43636405999996z m675.44727281-147.22909125a144.80727281 144.80727281 0 0 1 50.4 28.16727282 190.60363594 190.60363594 0 0 0-49.78909125-28.14545438h-0.61090875zM76.18247281-58.647272810000004A130.99636406 130.99636406 0 0 0 32.00065438 37.04727280999998a124.8 124.8 0 0 1 44.18181843-95.69454562z m45.20727282-28.14545438a113.60727281 113.60727281 0 0 0-48 28.14545438c14.59636406-11.58545437 30.76363594-21.07636406 48-28.14545438zM948.40792719 223.81090874999995c-36.58909125 21.38181844-76.58181844-17.97818156-81.79636313-26.35636313-49.96363594-57.33818156-105.57818156-126.65454563-205.35272812-126.65454562H361.32429125c-99.97090875 0-153.55636406 71.32363594-205.35272719 127.44-7.2 7.59272719-43.98545437 47.95636406-81.5781825 25.57090875C40.40065437 203.84727281000005 34.40065437 141.31636405999996 32.00065438 99.97090875000004v-65.71636312a124.8 124.8 0 0 1 44.20363687-95.49818157c14.18181844-12.28363594 30.52363594-21.81818156 48.17454469-28.14545531a97.2 97.2 0 0 0-10.38545438 42.13090969A105.31636406 105.31636406 0 0 0 213.96429125 57.81818155999997a7.2 7.2 0 0 0 5.60727281 1.78909125 7.41818156 7.41818156 0 0 0 5.7818175-1.78909125 105.51272719 105.51272719 0 0 0 99.99272719-105.07636312c0.39272719-16.8-3.84-33.38181844-12.21818156-47.93454563h395.12727281a99.79636406 99.79636406 0 0 0-12.19636406 47.93454563 105.31636406 105.31636406 0 0 0 99.97090968 105.07636312 7.41818156 7.41818156 0 0 0 5.80363594 1.78909125 7.00363594 7.00363594 0 0 0 5.60727281-1.78909125 105.31636406 105.31636406 0 0 0 99.97090969-105.07636312 99.79636406 99.79636406 0 0 0-10.38545531-42.15272719 142.40727281 142.40727281 0 0 1 49.96363687 28.16727281 124.8 124.8 0 0 1 42.41454563 93.68727188v66.52363687c0 43.15636406-6.61090875 105.07636406-39.99272719 124.64727281l-1.00363687 0.21818157z m-406.90909125-260.88l-10.21090875-14.1818175c-4.97454562-5.28-9.16363594-11.28-12.39272719-17.78181844a9.6 9.6 0 0 0-7.39636406-3.79636406 8.59636406 8.59636406 0 0 0-5.80363594 2.00727281c-3.6 3.79636406-7.39636406 12.17454563-12.19636406 17.76l-12.19636313 15.99272719c-5.60727281 7.39636406 0 13.96363594 10.40727281 13.96363687h39.99272719c12.19636406 0 15.99272719-5.58545437 10.18909125-13.96363687h-0.39272812zM809.03338156 60.41454562000001h-12.19636312c-15.99272719-7.39636406-28.18909125-51.53454562-28.18909125-105.07636406 0-15.94909125 1.09090875-31.89818156 3.18545437-47.73818156h62.18181844c2.42181844 15.79636406 3.70909125 31.76727281 3.81818156 47.73818156 0 53.54181844-13.2 97.68-29.19272719 105.07636406h0.39272719z m-583.06909031 0h-12.2181825c-15.97090875-7.39636406-30.17454563-51.53454562-30.17454469-105.07636406 0.21818156-15.97090875 1.48363594-31.92 3.79636313-47.73818156h62.18181843c2.4 15.79636406 3.68727281 31.74545438 3.79636313 47.73818156 0 53.54181844-11.38909125 97.68-27.3818175 105.07636406zM351.94247281 532.25454562h137.56363594v35.76000001h-141.97090875v75.29454562h128.16v38.1818175H183.54974562v-35.7818175h128.4v-75.90545531H169.56429125v-35.56363594h137.36727281c-13.98545437-53.52-57.38181844-99.88363594-137.36727281-145.41818156l17.80363594-31.96363688c49.98545438 28.16727281 112.16727281 69.51272719 144.17454562 133.24363688a202.34181844 202.34181844 0 0 1 31.98545438-47.93454563 419.86909125 419.86909125 0 0 1 112.16727281-85.30909125l17.80363594 31.96363688c-83.78181844 43.94181844-128.16 89.89090875-142.16727188 143.43272719h0.61090875z m318.32727282 61.92000001h35.78181843V623.34545438h78.19636313v-29.97818157h35.78181843V623.34545438h35.78181844V659.89090875h-36.37090969v21.6H783.63701844v-23.58545438h-78.17454563v23.56363688h-35.78181844v-23.56363688h-34.01454562v-35.56363593h33.99272719l0.61090968-28.16727282z m-73.20000001 69.12a87.84 87.84 0 0 1-69.57818156 17.97818156h-3.79636406v-35.76h5.60727281a90.45818156 90.45818156 0 0 0 44.37818156-7.39636313c4.38545438-4.8 6.43636406-11.30181844 5.60727282-17.78181844v-12.17454562l-55.59272719-33.75272719 17.80363594-31.96363687 37.78909125 20.96727281v-39.94909031l-55.59272719-33.75272719 18-31.96363688 37.59272719 21.57818157v-29.97818157a47.12727281 47.12727281 0 0 0-10.40727282-28.14545437 189.92727281 189.92727281 0 0 0-46.18909031-37.57090875l18-31.96363688a179.91272719 179.91272719 0 0 1 55.59272719 46.14545438 91.63636406 91.63636406 0 0 1 17.7818175 51.53454562v168.21818157A71.86909125 71.86909125 0 0 1 597.09156406 663.49090875v-0.21818156z m37.81090875-93.68727282v-163.2a52.95272719 52.95272719 0 0 1 53.58545438-53.54181844h112.16727281a52.97454563 52.97454563 0 0 1 53.58545438 53.54181844v163.41818156l-219.33818157-0.21818156z m92.16-179.78181843h-37.59272718a17.38909125 17.38909125 0 0 0-17.97818157 17.78181843V443.56363594h55.57090875v-53.73818156z m0 90.08727281h-55.17818156v54.13090875h55.59272719l-0.41454563-54.13090875z m92.4-74.11636313a17.19272719 17.19272719 0 0 0-17.80363593-17.78181844h-37.78909125V443.56363594h55.59272718V405.81818156z m0 74.11636313h-55.59272718v54.13090875h55.59272718v-54.13090875z"  horiz-adv-x="1024" />

    
    <glyph glyph-name="feizhu" unicode="&#58884;" d="M932.50370367 592.5925930000001h54.99259299l-1.89629699-11.377778-9.48148099-39.822222c0-3.79259297-3.79259297-15.17037001-7.58518501-26.548149-5.688889-17.06666699-13.27407399-36.02962999-24.65185201-54.99259201-28.444444-53.09629599-66.37036998-96.711111-117.57037099-127.05185199-5.688889-104.29629599-45.511111-197.214815-109.985185-263.585185-72.059259-72.059259-168.77037001-109.98518499-278.75555501-109.98518502-111.88148102 0-214.28148099 39.82222199-286.34074099 113.77777702-70.162963 72.059259-106.192593 170.666667-106.19259301 288.23703701 1.89629598 240.82962999 182.044444 417.185185 493.03703701 413.39259299h449.42222299l-11.37777798-60.681481c-9.48148101-45.511111-24.65185199-89.12592601-43.61481501-121.362963z m-108.08888899-62.577778l9.48148198 15.17037 39.82222202 64.474074c17.06666699 26.54814801 32.237037 64.47407402 39.82222198 102.4H532.38518566c-140.32592601 0-252.207407-37.92592599-326.16296299-111.88148099-62.57777801-62.57777801-98.607407-147.911111-98.60740801-240.82963002 0-100.50370401 30.340741-185.837037 89.12592602-244.62222198 60.68148101-60.68148101 146.014815-94.814815 242.72592599-94.81481502 94.814815 0 176.355556 32.237037 237.037037 92.918519 54.992593 56.888889 89.12592601 136.533333 92.91851899 227.55555501l1.896296 28.44444501 3.79259201 1.896296 18.962963 11.37777798c60.68148101 34.133333 96.711111 91.02222199 117.57037099 149.80740701h-87.22962998z m-345.12592602-89.125926c73.955556 0 132.740741-62.57777801 132.74074101-140.325926 0-77.74814801-58.785185-140.32592601-132.74074099-140.325926h-104.296296c-73.955556 0-132.740741 62.57777801-132.74074101 140.325926 0 77.74814801 58.785185 140.32592601 132.74074101 140.325926h104.296296z m2e-8-221.86666699c39.82222199 0 72.059259 36.02962999 72.05925898 79.64444499s-32.237037 79.644444-72.05925898 79.644444h-104.296296c-39.82222199 0-72.059259-36.02962999-72.05925901-79.644444s32.237037-79.644444 72.05925901-79.64444501h104.296296z m-174.45925901 246.51851899c0-22.75555603-18.962963-41.71851899-41.718519-41.71851901-22.75555603 0-41.71851899 18.962963-41.71851801 41.71851901 0 22.75555603 18.962963 41.71851899 41.71851801 41.718518 22.75555603 0 41.71851899-18.962963 41.718519-41.718518z m309.096296 41.718518c22.75555603 0 41.71851899-18.962963 41.71851901-41.718518 0-22.75555603-18.962963-43.614815-41.71851901-43.61481501-22.75555603 0-41.71851899 18.962963-41.718518 43.61481501 0 22.75555603 18.962963 41.71851899 41.718518 41.718518z m-229.451852-176.35555499c17.06666699 0 32.237037-13.27407399 32.237037-32.23703701 0-17.06666699-13.27407399-32.237037-32.237037-32.23703701-17.06666699 0-32.237037 13.27407399-32.23703701 32.23703701 0 17.06666699 13.27407399 32.237037 32.23703701 32.23703701z m87.22963 0c17.06666699 0 32.237037-13.27407399 32.23703701-32.23703701 0-17.06666699-13.27407399-32.237037-32.23703701-32.23703701-17.06666699 0-32.237037 13.27407399-32.237037 32.23703701 0 17.06666699 15.17037001 32.237037 32.237037 32.23703701z"  horiz-adv-x="1024" />

    


  </font>
</defs>
</svg>
